<?xml version="1.0" encoding="UTF-8"?><svg id="_レイヤー_1" xmlns="http://www.w3.org/2000/svg" xmlns:xlink="http://www.w3.org/1999/xlink" viewBox="0 0 536.19 536.19"><defs><style>.cls-1{fill:none;}.cls-2{clip-path:url(#clippath);}.cls-3{fill:#89b8bd;}.cls-4{fill:#63543d;}.cls-5{clip-path:url(#clippath-1);}.cls-6{clip-path:url(#clippath-2);}</style><clipPath id="clippath"><rect class="cls-1" x="64.65" y="-198.23" width="578.27" height="814.68"/></clipPath><clipPath id="clippath-1"><rect class="cls-1" x="64.65" y="-203.33" width="578.27" height="824.88"/></clipPath><clipPath id="clippath-2"><rect class="cls-1" x="85.15" y="-158.87" width="578.27" height="814.68" transform="translate(125.31 622.42) rotate(-89.92)"/></clipPath></defs><g class="cls-2"><g class="cls-5"><rect class="cls-4" x="304.31" y="280.64" width=".76" height="244.91"/></g></g><g class="cls-6"><polygon class="cls-3" points="212.96 -2.93 46.97 575.11 322.67 575.48 482.9 -2.57 212.96 -2.93"/><path class="cls-4" d="m108.12,281.57c45.03-25.3,111.85-20.75,177.36-16.89,60.69,3.57,120.25,6.56,160.33-15.31"/><rect class="cls-1" x="85.15" y="-163.97" width="578.27" height="824.88" transform="translate(125.31 622.42) rotate(-89.92)"/><path class="cls-4" d="m162.18,397.84c-.53-1.41-1.03-2.85-1.51-4.32-.48-1.47-.93-2.94-1.36-4.41-.03-.09-.08-.13-.15-.12-.07,0-.12.05-.15.14l-2.57,8.74c-.02.06-.08.11-.17.13-.09.03-.18.04-.28.04-.09,0-.17-.02-.24-.05-.08-.03-.13-.08-.15-.15-.29-.81-.58-1.63-.87-2.44-.29-.81-.57-1.64-.84-2.47-.27-.83-.54-1.68-.8-2.54-.26-.86-.52-1.75-.77-2.66-.09-.32-.19-.6-.28-.85-.1-.25-.22-.46-.38-.64-.16-.18-.35-.32-.57-.42-.23-.1-.52-.17-.87-.2-.07,0-.12-.04-.16-.12-.04-.07-.06-.15-.05-.23,0-.08.02-.14.05-.2.03-.06.09-.08.16-.08.25,0,.48,0,.7.02.22.01.44.03.65.05.21.02.42.03.64.05.21.01.43.02.66.02.48,0,.98-.02,1.5-.06.52-.04,1.03-.06,1.56-.06.07,0,.12.03.15.09.03.06.05.12.05.19,0,.08-.02.16-.06.23-.04.07-.09.11-.16.12-.18.01-.37.02-.57.03-.19,0-.37.04-.53.09-.16.05-.29.13-.39.24-.1.11-.15.27-.15.48,0,.12.03.34.09.64.06.3.16.76.32,1.36.16.6.37,1.38.65,2.35.27.96.63,2.17,1.06,3.61.03.07.09.11.17.12.08,0,.14-.03.17-.12.51-1.58.97-3.14,1.38-4.69.41-1.54.81-3.08,1.22-4.6.02-.07.07-.12.15-.15.08-.03.17-.05.26-.05.09,0,.17.02.24.05.07.03.12.08.13.15.46,1.57.94,3.12,1.43,4.68.5,1.55,1.03,3.1,1.61,4.64.04.09.09.14.17.15.08,0,.12-.02.14-.09.34-1.03.63-1.97.87-2.82.24-.85.43-1.6.58-2.25.15-.65.26-1.2.32-1.64.07-.44.1-.78.1-1s-.02-.42-.07-.56c-.05-.15-.12-.27-.22-.35-.1-.09-.23-.15-.38-.18-.16-.04-.34-.06-.56-.07-.09,0-.15-.03-.19-.09-.04-.06-.06-.13-.06-.2,0-.08.02-.16.06-.23.04-.07.1-.11.18-.11.2,0,.39,0,.58.02.18.01.36.03.53.05.17.02.35.03.52.05.17.01.35.02.52.02s.33,0,.47-.02c.14-.01.29-.03.43-.05.14-.02.29-.03.44-.05.15-.01.32-.02.52-.02.07,0,.12.03.17.1.04.07.07.14.07.22,0,.08-.02.14-.06.2-.04.06-.11.09-.21.1-.3.02-.55.11-.75.26-.2.16-.37.36-.51.61-.14.25-.27.53-.38.86-.11.33-.22.67-.33,1.02-.5,1.58-1,3.16-1.5,4.72-.5,1.57-1,3.14-1.5,4.73-.02.07-.08.12-.17.16-.09.04-.19.05-.29.05-.11,0-.21-.02-.3-.06-.09-.04-.15-.09-.17-.16"/><path class="cls-4" d="m173.65,390.28c.02.06.06.06.09,0,.33-.43.74-.76,1.22-1,.48-.24.96-.35,1.44-.35,1.06,0,1.83.29,2.3.88.47.58.71,1.35.71,2.29v3.48c0,.33,0,.6.02.8.02.2.07.36.15.48.09.12.2.21.35.28.15.06.36.12.62.15.06.01.11.05.14.1.03.06.05.12.05.19s-.02.13-.06.19c-.04.06-.09.08-.15.08-.18,0-.44-.02-.81-.07-.36-.04-.72-.07-1.1-.07-.4,0-.8.02-1.19.06-.39.04-.72.06-1,.06-.04,0-.07-.03-.1-.08-.03-.06-.05-.12-.05-.19s.01-.13.04-.19c.02-.06.07-.09.13-.1.29-.04.51-.09.67-.15.16-.06.27-.16.34-.28.07-.12.11-.29.13-.49.02-.2.03-.46.03-.78v-2.84c0-.31-.02-.63-.06-.94-.04-.31-.12-.6-.24-.86-.12-.26-.29-.47-.52-.63-.23-.17-.53-.25-.9-.25-.4,0-.75.08-1.03.23-.28.15-.51.33-.69.54-.18.21-.32.44-.41.67-.09.24-.13.44-.13.62v3.33c0,.34,0,.62.01.84.01.22.05.4.12.53.06.13.16.23.29.29.13.06.32.12.56.15.06.01.11.05.14.1.03.06.05.12.05.19s-.02.13-.05.19c-.03.06-.07.08-.12.08-.17,0-.42-.02-.77-.07-.35-.04-.71-.07-1.08-.07-.41,0-.79.02-1.16.06-.36.04-.69.06-.98.06-.06,0-.1-.03-.13-.08-.03-.06-.05-.12-.05-.19s.01-.13.04-.19c.02-.06.08-.09.16-.1.28-.04.49-.09.66-.15.16-.06.28-.16.36-.28.07-.13.12-.29.14-.49.02-.2.03-.46.04-.78v-7.4c.01-.54,0-.97-.03-1.29-.03-.32-.09-.57-.19-.75-.1-.18-.25-.29-.45-.36-.2-.06-.48-.12-.83-.15-.06,0-.11-.03-.14-.09-.03-.06-.05-.13-.05-.21s.02-.15.05-.21c.03-.06.09-.09.16-.09.28-.01.57-.04.88-.1.31-.05.61-.1.9-.14.28-.04.53-.08.76-.12.22-.04.37-.05.46-.05.1,0,.17.03.21.08.04.06.06.11.05.18v5.41Z"/><path class="cls-4" d="m186.69,395.48c0,.31,0,.58.02.79.02.21.06.39.13.53.07.14.19.25.34.32.16.08.38.13.67.17.07.01.12.04.15.1.03.05.05.11.05.18s-.02.13-.05.19c-.04.06-.09.09-.15.09-.11,0-.24,0-.4-.02-.15-.01-.32-.03-.49-.05-.17-.02-.36-.03-.55-.05-.19-.01-.38-.02-.56-.02-.41,0-.8.02-1.18.06-.38.04-.75.06-1.1.06-.06,0-.11-.03-.14-.08-.03-.06-.05-.12-.05-.18s.02-.13.05-.19c.03-.06.09-.09.15-.11.33-.04.59-.09.77-.16.18-.07.31-.18.4-.31.08-.13.13-.3.14-.5.01-.2.02-.44.02-.73v-3.03c0-.55,0-.99-.03-1.31-.02-.32-.08-.56-.17-.74-.09-.17-.22-.29-.4-.35-.17-.06-.41-.12-.71-.15-.06,0-.1-.03-.12-.09-.03-.06-.04-.12-.04-.19s.01-.13.04-.19c.02-.06.07-.09.12-.09.28-.02.56-.05.87-.09.3-.04.58-.08.84-.13.26-.05.49-.08.68-.11.19-.03.31-.05.36-.05.16,0,.25.04.3.13.04.09.06.17.06.24v6.03Zm-.98-8.35c-.31,0-.59-.1-.82-.3-.22-.19-.33-.43-.33-.73,0-.15.03-.28.08-.41.06-.13.13-.23.24-.33.1-.09.22-.16.35-.22.13-.05.28-.08.44-.08.15,0,.28.03.41.08.13.06.24.13.33.23.09.1.16.21.22.33.05.13.08.26.08.41s-.02.27-.07.39c-.05.12-.12.23-.21.32-.09.09-.2.16-.31.22-.12.05-.25.08-.4.08"/><path class="cls-4" d="m197.28,389.32c-.04.14-.08.31-.11.51-.03.2-.05.41-.05.64,0,.24,0,.49.02.75.01.26.02.46.02.6,0,.04-.02.07-.07.09-.05.02-.1.04-.17.05-.06,0-.12,0-.17-.02-.05-.02-.08-.05-.09-.08-.14-.67-.37-1.18-.68-1.54-.31-.36-.82-.54-1.51-.54-.46,0-.84.12-1.14.35-.31.23-.46.55-.46.94,0,.32.12.58.38.75.25.18.59.34,1,.49.18.06.39.14.63.24.24.1.44.17.6.24.32.15.63.31.91.48.28.16.53.36.74.58.21.22.37.47.49.75.12.28.18.6.18.96,0,.48-.1.88-.31,1.2-.2.32-.46.58-.77.77-.31.2-.67.34-1.07.42-.41.09-.8.13-1.19.13-.32,0-.69-.04-1.09-.11-.4-.07-.75-.18-1.05-.32-.07-.02-.15-.01-.23.04-.09.05-.14.15-.16.28,0,.04-.03.06-.09.07-.06.01-.11.02-.17.02s-.11,0-.16-.03c-.05-.02-.07-.05-.07-.08,0-.1.01-.24.04-.41.02-.18.04-.34.04-.49s0-.35-.02-.6c-.01-.25-.04-.49-.08-.75-.04-.25-.06-.41-.06-.47,0-.05.02-.09.08-.11.05-.02.11-.04.17-.05.06,0,.12,0,.18.02.06.02.1.05.11.1.09.37.2.69.33.97.14.28.31.51.52.7.21.19.46.33.75.42.29.1.65.14,1.07.14.45,0,.82-.12,1.1-.38.29-.25.43-.6.43-1.06,0-.4-.14-.71-.43-.95-.28-.23-.61-.44-.99-.62-.18-.07-.36-.15-.54-.23-.18-.08-.36-.15-.55-.23-.28-.11-.55-.23-.82-.35-.27-.12-.51-.27-.72-.45-.21-.18-.38-.4-.5-.66-.13-.26-.19-.59-.19-.98,0-.45.1-.84.3-1.15.2-.31.45-.57.76-.76.31-.2.65-.34,1.03-.42.37-.09.75-.13,1.12-.13.31,0,.61.04.9.12.29.08.59.23.92.44.05.02.12.02.2,0,.09-.03.15-.13.2-.31.01-.05.05-.08.11-.09.07-.01.13-.02.19,0,.06,0,.12.02.17.05.05.02.07.06.06.09"/><path class="cls-4" d="m210.5,397.88c-.2-.01-.41-.03-.61-.04-.21-.01-.42-.02-.65-.02-.25,0-.5,0-.75.03-.25.02-.48.03-.69.03-.09,0-.15-.03-.19-.09-.04-.06-.06-.12-.08-.17-.1-.53-.26-1.02-.49-1.48-.23-.46-.5-.87-.8-1.22-.3-.35-.62-.63-.97-.83-.35-.2-.69-.3-1.03-.3v1.47c0,.36,0,.66.02.9.02.24.06.44.14.59.08.16.19.28.34.36.15.08.36.15.62.2.06.01.11.05.14.1.03.06.05.12.05.19s-.02.13-.05.19c-.03.06-.08.08-.14.08-.35,0-.67-.02-.96-.07-.29-.04-.63-.07-1-.07-.41,0-.81.02-1.2.06-.39.04-.79.06-1.18.06-.06,0-.11-.03-.14-.08-.04-.06-.05-.12-.05-.19s.02-.13.05-.19c.03-.06.09-.09.16-.1.35-.04.62-.09.82-.17.2-.08.34-.18.42-.31.09-.13.14-.29.15-.49.02-.19.03-.44.03-.73v-7.4c.01-.54,0-.97-.03-1.29-.02-.32-.1-.57-.21-.75-.12-.17-.29-.29-.51-.36-.22-.06-.54-.12-.94-.15-.06,0-.11-.03-.14-.09-.03-.06-.05-.13-.05-.21s.02-.15.05-.21c.03-.06.08-.09.16-.09.79-.08,1.46-.17,2.02-.26.56-.1.94-.15,1.16-.15.1,0,.18.03.22.08.04.06.06.11.06.17v8.07c.23-.15.46-.32.67-.51.21-.19.41-.38.59-.58.17-.2.33-.4.49-.58.15-.19.29-.35.4-.49.25-.32.35-.56.32-.7-.03-.14-.24-.23-.64-.25-.07,0-.12-.03-.16-.1-.04-.06-.06-.13-.06-.2s.02-.13.06-.19c.04-.06.09-.09.16-.09.2,0,.37,0,.52.02.15.01.28.03.4.05.12.02.23.04.35.05.11.01.25.02.4.02.29,0,.58-.02.88-.07.3-.05.59-.07.88-.07.06,0,.1.03.14.09.04.06.06.12.06.19s-.02.13-.05.19c-.03.06-.08.09-.15.11-.25.02-.46.06-.62.11-.17.05-.31.12-.45.21-.14.09-.27.19-.39.31-.13.12-.28.26-.45.42-.12.1-.27.24-.45.42-.19.17-.39.36-.61.56-.22.2-.44.38-.64.56-.21.17-.39.32-.53.43-.05.04-.07.08-.06.12.01.04.04.06.07.06.5.03.92.11,1.25.25.33.14.61.33.84.55.23.22.42.47.57.75.16.28.31.56.47.86.15.29.33.58.53.87.2.28.44.54.74.78.09.06.19.11.33.14.13.03.27.06.41.09.07.01.13.05.17.1.04.06.06.12.06.19s-.02.13-.06.19c-.04.06-.1.08-.17.08"/><path class="cls-4" d="m218.02,395.37s.07.07.13.07.1-.02.13-.07c.39-.77.74-1.49,1.03-2.18.3-.68.56-1.35.78-2.01.04-.1.07-.21.09-.34.02-.13.04-.23.04-.29,0-.14-.03-.26-.1-.35-.07-.09-.16-.16-.26-.21-.11-.05-.22-.09-.34-.11-.12-.02-.22-.04-.31-.06-.06-.01-.11-.05-.14-.11-.03-.06-.05-.12-.05-.18s.02-.12.05-.17c.03-.05.08-.08.14-.08.24,0,.48.02.74.05.25.03.5.05.75.05.29,0,.58-.02.88-.05.3-.03.54-.05.72-.05.06,0,.11.03.14.08.03.05.05.11.05.18s-.02.13-.05.19c-.03.06-.08.09-.14.09-.19.02-.35.07-.48.13-.13.06-.24.15-.33.27-.1.12-.18.27-.26.46-.08.18-.18.4-.3.65-.34.76-.7,1.58-1.1,2.47-.39.89-.81,1.78-1.22,2.69-.42.9-.85,1.79-1.28,2.67-.43.87-.84,1.69-1.23,2.44-.1.18-.23.4-.38.64-.15.25-.33.48-.53.7-.21.22-.44.41-.7.56-.26.15-.55.22-.87.22-.29,0-.57-.08-.84-.24-.26-.16-.4-.41-.39-.76,0-.26.08-.49.25-.68.17-.19.38-.28.64-.28.11,0,.2.02.26.06.06.04.12.09.18.14.06.05.12.1.19.14.07.04.15.06.25.06.14,0,.29-.09.47-.26.18-.17.37-.4.56-.67.2-.27.39-.57.59-.91.2-.33.38-.66.54-.97.16-.31.31-.59.42-.85.12-.25.21-.44.26-.55.06-.15.09-.28.09-.4s-.02-.23-.07-.33c-.4-.84-.84-1.76-1.33-2.78-.49-1.02-.95-2.03-1.4-3.05-.12-.3-.23-.55-.34-.74-.1-.19-.21-.34-.31-.46-.11-.11-.23-.2-.37-.26-.15-.06-.33-.11-.56-.15-.05-.01-.09-.05-.11-.11-.02-.06-.03-.12-.03-.18,0-.06.02-.12.06-.17.03-.05.08-.08.14-.08.39,0,.77.02,1.13.05.36.03.72.05,1.08.05s.72-.02,1.07-.05c.35-.03.71-.05,1.07-.05.07,0,.12.03.15.08.03.05.05.11.05.17s-.02.12-.05.18c-.03.06-.08.09-.15.11-.4.05-.68.12-.84.22-.16.1-.24.24-.24.41,0,.25.05.52.16.79.26.71.53,1.38.81,2.01.28.64.61,1.34,1.02,2.1"/><path class="cls-4" d="m233.99,391.54c.5.52.99,1.03,1.47,1.53.48.5.99,1.01,1.51,1.53.45-.58.86-1.08,1.21-1.52.35-.43.69-.8.99-1.09.31-.29.61-.52.89-.67.29-.15.59-.22.91-.22.39,0,.68.09.88.28.2.19.3.41.3.68,0,.22-.07.42-.19.59-.12.17-.35.26-.71.26-.13,0-.24-.01-.32-.04-.09-.03-.15-.06-.2-.11-.05-.04-.08-.09-.1-.14-.02-.05-.03-.09-.03-.13,0-.23-.12-.35-.36-.35-.14,0-.27.04-.41.13-.13.09-.31.24-.5.46-.2.22-.45.52-.75.9-.3.38-.67.85-1.13,1.43.19.18.4.38.64.59.24.22.49.43.74.62.26.2.52.36.77.49.26.13.5.2.73.2.44,0,.76-.1.98-.31.22-.21.37-.49.45-.86.01-.05.04-.09.09-.11.05-.03.1-.04.17-.04.07,0,.14.02.2.06.06.04.09.1.07.19-.03.28-.11.56-.23.85-.12.28-.29.53-.5.76-.21.22-.46.4-.74.54-.29.14-.6.21-.95.21-.37,0-.72-.05-1.05-.15-.33-.1-.63-.23-.92-.4-.29-.17-.57-.36-.83-.58-.26-.22-.51-.45-.75-.69-.05-.04-.09-.04-.13,0-.54.62-1.1,1.08-1.69,1.37-.58.29-1.23.44-1.93.43-.44,0-.86-.06-1.25-.18-.4-.12-.75-.29-1.04-.52-.3-.23-.54-.52-.71-.86-.17-.34-.26-.74-.26-1.2,0-.51.07-.95.22-1.32.15-.37.35-.69.61-.97.26-.28.56-.52.89-.72.34-.21.71-.4,1.09-.59-.2-.22-.4-.43-.59-.64-.19-.21-.36-.43-.51-.67-.15-.24-.27-.5-.35-.78-.09-.29-.13-.62-.13-.99,0-.31.06-.63.19-.95.12-.32.31-.61.58-.87.26-.26.59-.47,1-.64.41-.17.89-.25,1.46-.25.36,0,.71.05,1.07.14.36.09.68.24.97.44.29.2.52.46.7.78.18.32.27.71.27,1.16,0,.38-.09.72-.27,1.02-.18.3-.41.56-.69.8-.28.24-.58.45-.91.63-.33.18-.64.35-.93.49m1.75,4.28c-.55-.59-1.09-1.16-1.61-1.72-.52-.56-1.04-1.13-1.57-1.72-.44.37-.76.77-.94,1.2-.18.44-.27.88-.27,1.34,0,.3.03.58.1.82.07.25.18.46.34.64.15.17.35.31.58.41.23.1.51.15.84.15.44,0,.9-.09,1.38-.27.47-.18.86-.41,1.17-.69.05-.05.04-.1-.02-.17m-2.17-4.83c.29-.13.54-.28.75-.43.2-.15.37-.32.51-.51.14-.18.23-.39.3-.62.06-.23.09-.48.09-.76,0-.31-.05-.58-.13-.81-.09-.24-.2-.44-.35-.6-.14-.16-.3-.29-.48-.37-.18-.08-.35-.12-.52-.13-.34,0-.61.05-.82.15-.21.1-.37.23-.49.39-.12.16-.2.34-.24.55-.04.21-.06.42-.07.63,0,.24.05.47.15.7.1.23.22.45.37.67.15.22.3.42.47.61.17.19.33.37.47.53"/><path class="cls-4" d="m256.91,384.81c.56,0,1.09.07,1.56.21.48.14.95.32,1.42.55.13.06.26.12.38.18.12.06.22.08.31.08.2,0,.33-.12.4-.36.01-.05.05-.09.13-.11.07-.02.14-.03.21-.03.07,0,.13.02.18.05.05.02.07.06.06.12-.05.2-.08.4-.1.62-.02.21-.03.44-.03.66,0,.35.02.7.07,1.05.05.35.1.72.15,1.09,0,.05-.03.09-.08.12-.06.03-.12.05-.21.06-.08,0-.16,0-.24-.03-.08-.02-.12-.07-.13-.14-.31-1.13-.82-1.96-1.52-2.5-.7-.53-1.58-.8-2.65-.8-.83,0-1.51.17-2.06.53-.54.35-.97.8-1.29,1.35-.32.55-.54,1.15-.67,1.83-.13.67-.19,1.33-.19,1.96,0,.71.07,1.41.22,2.11.15.7.39,1.34.73,1.91.34.57.78,1.03,1.33,1.39.55.36,1.21.54,1.99.54.6,0,1.14-.05,1.62-.15.48-.1.88-.3,1.21-.59.41-.37.73-.81.97-1.31.24-.51.41-1.08.51-1.72.01-.09.05-.15.12-.17.07-.02.14-.03.22,0,.07.02.15.05.21.11.07.05.09.1.07.15-.04.25-.06.5-.07.75-.01.25-.02.49-.02.75,0,.42.01.86.04,1.31.03.45.06.92.09,1.41,0,.07-.03.13-.08.17-.05.04-.11.06-.18.06-.07,0-.14,0-.2-.04-.07-.03-.1-.08-.12-.14-.02-.12-.07-.23-.13-.33-.06-.1-.14-.19-.25-.26-.1-.07-.22-.11-.35-.11s-.28.04-.44.13c-.28.15-.54.28-.8.39-.26.11-.52.19-.78.25-.26.06-.54.1-.83.13-.29.02-.6.04-.94.04-2.23,0-3.88-.56-4.95-1.67-1.07-1.11-1.61-2.7-1.6-4.78,0-1.1.17-2.08.51-2.93.34-.85.81-1.56,1.41-2.13.6-.57,1.31-1,2.13-1.29.82-.29,1.72-.43,2.69-.43"/><path class="cls-4" d="m274.06,393.31c0,.77-.11,1.45-.33,2.04-.22.59-.52,1.09-.92,1.49-.39.4-.87.7-1.42.91-.55.2-1.17.31-1.85.31-.59,0-1.13-.1-1.64-.29-.5-.19-.94-.48-1.3-.87-.37-.38-.66-.87-.86-1.45-.21-.58-.32-1.27-.32-2.06,0-.64.11-1.23.32-1.77.21-.53.51-.99.89-1.37.38-.38.85-.67,1.39-.88.54-.21,1.13-.32,1.77-.32s1.18.1,1.7.28c.52.19.97.46,1.35.82.37.36.67.8.88,1.33.21.53.32,1.14.32,1.82m-1.98.21c0-.48-.03-.94-.09-1.39-.07-.45-.18-.85-.34-1.21-.16-.35-.39-.64-.67-.85-.29-.22-.66-.32-1.11-.32-.5,0-.91.11-1.22.32-.31.21-.56.5-.75.86-.18.36-.31.76-.38,1.21-.07.45-.1.92-.1,1.41,0,.43.03.87.09,1.32.06.45.18.86.36,1.22.18.37.42.67.73.91.31.24.7.36,1.18.36s.89-.11,1.19-.34c.3-.23.53-.52.71-.89.17-.36.28-.78.34-1.23.06-.46.09-.92.09-1.39"/><path class="cls-4" d="m278.48,393.26c0,.53.08,1.02.24,1.46.16.44.39.82.67,1.14.28.32.61.56.99.74.38.18.79.26,1.22.26.35,0,.71-.04,1.08-.12.37-.08.74-.24,1.1-.5.1-.07.21-.04.31.08.1.12.12.23.05.33-.45.56-.97.93-1.56,1.12-.59.19-1.21.28-1.86.28-.53,0-1.04-.1-1.55-.3-.5-.2-.96-.49-1.35-.87-.4-.38-.72-.86-.96-1.43-.24-.57-.37-1.22-.37-1.97,0-.63.1-1.21.31-1.75.21-.54.51-1.01.9-1.41.4-.4.88-.71,1.47-.94.58-.23,1.25-.34,2-.34.36,0,.71.04,1.06.13.35.09.66.22.93.39.27.17.48.38.65.63.16.25.24.53.24.85,0,.23-.08.44-.23.63-.15.2-.38.3-.71.3-.26,0-.48-.07-.65-.21-.17-.14-.26-.34-.26-.6,0-.18.05-.32.14-.43.1-.12.15-.22.15-.32,0-.23-.15-.4-.45-.52-.31-.12-.65-.18-1-.19-.47,0-.87.1-1.2.3-.33.2-.59.47-.79.8-.2.33-.35.71-.44,1.13-.09.42-.13.85-.13,1.29"/><path class="cls-4" d="m296.56,398c-.2-.01-.41-.03-.61-.04-.21-.01-.42-.02-.65-.02-.25,0-.5,0-.75.03-.25.02-.48.03-.69.03-.09,0-.15-.03-.19-.09-.04-.06-.06-.12-.08-.17-.1-.53-.26-1.02-.49-1.48-.23-.46-.5-.87-.8-1.22-.3-.35-.62-.63-.97-.83-.35-.2-.69-.3-1.03-.3v1.47c0,.36,0,.66.02.9.02.24.06.44.14.59.08.16.19.28.34.36.15.08.36.15.62.2.06.01.11.05.14.1.03.06.05.12.05.19s-.02.13-.05.19c-.03.06-.08.08-.14.08-.35,0-.67-.02-.96-.07-.29-.04-.63-.07-1-.07-.41,0-.81.02-1.2.06-.39.04-.79.06-1.18.06-.06,0-.11-.03-.14-.08-.04-.06-.05-.12-.05-.19s.02-.13.05-.19c.03-.06.09-.09.16-.1.35-.04.62-.09.82-.17.2-.08.34-.18.42-.31.09-.13.14-.29.15-.49.02-.19.03-.44.03-.73v-7.4c.01-.54,0-.97-.03-1.29-.02-.32-.1-.57-.21-.75-.12-.17-.29-.29-.51-.36-.22-.06-.54-.12-.94-.15-.06,0-.11-.03-.14-.09-.03-.06-.05-.13-.05-.21s.02-.15.05-.21c.03-.06.08-.09.16-.09.79-.08,1.46-.17,2.02-.26.56-.1.94-.15,1.16-.15.1,0,.18.03.22.08.04.06.06.11.06.17v8.07c.23-.15.46-.32.67-.51.21-.19.41-.38.59-.58.17-.2.33-.4.49-.58.15-.19.29-.35.4-.49.25-.32.35-.56.32-.7-.03-.14-.24-.23-.64-.25-.07,0-.12-.03-.16-.1-.04-.06-.06-.13-.06-.2s.02-.13.06-.19c.04-.06.09-.09.16-.09.2,0,.37,0,.52.02.15.01.28.03.4.05.12.02.23.04.35.05.11.01.25.02.4.02.29,0,.58-.02.88-.07.3-.05.6-.07.88-.07.06,0,.1.03.14.09.04.06.06.12.05.19s-.02.13-.05.19c-.03.06-.08.09-.15.11-.25.02-.46.06-.62.11-.17.05-.31.12-.45.21-.14.09-.27.19-.39.31-.13.12-.28.26-.45.42-.12.1-.27.24-.45.42-.19.17-.39.36-.61.56-.22.2-.44.38-.64.56-.21.17-.39.32-.53.43-.05.04-.07.08-.06.12.01.04.04.06.07.06.5.03.92.11,1.25.25.33.14.61.33.84.55.23.22.42.47.57.75.16.28.31.56.47.86.15.29.33.58.53.87.2.28.44.54.74.78.09.06.19.11.33.14.13.03.27.06.41.09.07.01.13.05.17.1.04.06.06.12.06.19s-.02.13-.06.19c-.04.06-.1.08-.17.08"/><path class="cls-4" d="m301.92,395.01c0,.7.08,1.22.23,1.56.15.34.44.51.86.51.29,0,.57-.04.82-.13.25-.09.45-.18.59-.28.04-.02.09-.03.14,0,.05.02.09.05.13.09.04.04.06.09.08.14.02.05.01.1-.01.13-.25.38-.57.65-.94.82-.37.17-.82.25-1.34.25-.86,0-1.47-.19-1.82-.57-.35-.38-.53-.98-.53-1.81v-4.85c0-.15,0-.27-.01-.35-.01-.08-.05-.14-.12-.18-.07-.04-.17-.06-.31-.07-.14,0-.34,0-.61,0-.04,0-.08-.04-.11-.13-.02-.09-.04-.18-.04-.28,0-.08.01-.15.04-.21.02-.06.06-.09.11-.09.29-.04.54-.09.75-.16.21-.07.39-.17.54-.32.15-.15.27-.35.37-.6.1-.25.17-.59.23-1,.01-.08.08-.14.19-.17.11-.04.23-.05.35-.05.1,0,.2.01.28.04.08.03.13.07.13.12v1.62c0,.21,0,.33.03.35.02.03.1.05.24.05h1.96c.09,0,.14.04.17.12.02.08.04.18.04.29,0,.15-.02.26-.05.33-.03.07-.09.1-.18.1h-2.04c-.09,0-.14.02-.15.06,0,.02-.01.08-.02.15,0,.08,0,.19,0,.33v4.21Z"/><path class="cls-4" d="m313.93,395.89c0,.44.05.75.14.93.09.18.24.26.45.26.14,0,.25-.01.34-.05.09-.03.21-.1.37-.2.06-.06.14-.02.25.11.1.13.11.23.04.3-.21.26-.47.47-.76.63-.29.16-.59.24-.89.24-.39,0-.71-.08-.97-.23-.26-.15-.47-.4-.63-.75-.02-.06-.06-.06-.12-.02-.34.28-.73.52-1.15.72-.42.18-.95.27-1.58.27-.72,0-1.29-.19-1.68-.57-.4-.38-.59-.92-.59-1.63,0-.93.42-1.63,1.26-2.12.84-.49,2.06-.73,3.68-.73.02,0,.03,0,.04-.02,0-.01.01-.05.02-.12,0-.06,0-.16,0-.29,0-.13,0-.32,0-.56,0-.31-.02-.61-.07-.88-.05-.28-.14-.52-.28-.73-.13-.21-.32-.37-.55-.49-.23-.12-.53-.18-.9-.18s-.69.09-.97.27c-.28.18-.41.42-.42.71,0,.13.04.26.13.41.09.13.14.26.14.4,0,.17-.09.34-.27.51-.18.17-.39.25-.64.25-.34,0-.59-.09-.73-.28-.14-.18-.21-.41-.21-.67,0-.32.09-.62.27-.89.18-.28.42-.52.72-.72.3-.21.65-.37,1.05-.48.4-.12.83-.17,1.27-.17,1.01,0,1.8.24,2.37.7.58.46.86,1.23.86,2.31v3.77Zm-1.77-1.92c0-.14,0-.23-.02-.26-.01-.03-.04-.05-.09-.05-1.03.08-1.8.31-2.29.66-.5.36-.75.81-.75,1.36,0,.19.02.37.07.53.05.16.12.31.22.43.1.12.22.21.38.28.15.07.34.1.56.1.29,0,.6-.06.91-.17.31-.11.6-.28.86-.49.1-.1.15-.2.15-.3v-2.1Z"/><path class="cls-4" d="m320.87,395.66c0,.31,0,.58.02.79.02.21.06.39.13.53.07.14.19.25.34.32.16.08.38.13.67.17.07.01.12.04.15.1.03.05.05.11.05.18s-.02.13-.05.19c-.04.06-.09.09-.15.09-.11,0-.24,0-.4-.02-.15-.01-.32-.03-.49-.05-.17-.02-.36-.03-.55-.05-.19-.01-.38-.02-.56-.02-.41,0-.8.02-1.18.06-.38.04-.75.06-1.1.06-.06,0-.11-.03-.14-.08-.03-.06-.05-.12-.05-.18s.02-.13.05-.19c.03-.06.09-.09.15-.11.33-.04.59-.09.77-.16.18-.07.31-.18.4-.31.08-.13.13-.3.14-.5.01-.2.02-.44.02-.73v-3.03c0-.55,0-.99-.03-1.31-.02-.32-.08-.56-.17-.74-.09-.17-.22-.29-.4-.35-.17-.06-.41-.12-.71-.15-.06,0-.1-.03-.12-.09-.03-.06-.04-.12-.04-.19s.01-.13.04-.19c.02-.06.07-.09.12-.09.28-.02.56-.05.87-.09.3-.04.58-.08.84-.13.26-.05.49-.08.68-.11.19-.03.31-.05.36-.05.16,0,.25.04.3.13.04.09.06.17.06.24v6.03Zm-.98-8.35c-.31,0-.59-.1-.82-.3-.22-.19-.33-.43-.33-.73,0-.15.03-.28.08-.41.06-.13.13-.23.24-.33.1-.09.22-.16.35-.22.14-.05.28-.08.44-.08.15,0,.28.03.41.08.13.06.24.13.33.23.09.1.16.21.22.33.05.13.08.26.08.41s-.03.27-.07.39c-.05.12-.12.23-.21.32-.09.09-.2.16-.31.22-.12.05-.25.08-.4.08"/><path class="cls-4" d="m325.72,388.37c0-.55-.01-.98-.04-1.3-.02-.32-.09-.57-.19-.74-.1-.18-.26-.3-.46-.36-.21-.06-.49-.12-.86-.15-.06,0-.11-.03-.14-.1-.03-.07-.05-.14-.05-.22,0-.07.02-.13.05-.19.03-.06.08-.09.15-.09.45-.04.85-.09,1.2-.14.34-.05.64-.09.89-.14.25-.04.45-.08.61-.1.16-.02.27-.04.35-.04.1,0,.17.03.22.08.04.06.07.11.07.18v10.59c-.01.32,0,.58,0,.8.01.21.06.38.14.52.09.13.21.24.39.31.18.08.43.14.76.19.07.01.12.05.15.11.03.06.05.13.05.19s-.02.13-.05.18c-.03.05-.08.08-.15.08-.3,0-.64-.02-1.02-.07-.38-.04-.75-.07-1.13-.07-.4,0-.8.02-1.19.06-.39.04-.78.06-1.19.06-.07,0-.12-.03-.15-.08-.03-.06-.05-.12-.05-.18s.02-.13.06-.19c.04-.06.09-.09.17-.11.36-.04.63-.09.82-.16.19-.07.33-.18.41-.31.09-.13.14-.3.15-.5.01-.2.02-.44.02-.73v-7.4Z"/><path class="cls-4" d="m253.83,361.62c-.4-.03-.81-.05-1.22-.08-.41-.03-.84-.04-1.3-.04-.5,0-1,.02-1.49.05-.49.04-.95.05-1.38.05-.17,0-.3-.06-.38-.18-.08-.12-.13-.23-.16-.33-.2-1.06-.53-2.04-.99-2.97-.47-.92-1-1.73-1.6-2.44-.6-.71-1.25-1.26-1.94-1.66-.69-.4-1.38-.6-2.05-.6v2.94c0,.72.01,1.33.05,1.8.04.48.13.87.28,1.19.15.31.38.55.68.72.3.17.71.3,1.24.4.12.02.21.09.28.2.06.11.09.24.09.38s-.03.27-.09.38c-.06.11-.15.17-.28.17-.7,0-1.34-.04-1.92-.13-.59-.09-1.25-.13-2.01-.13-.81,0-1.61.04-2.39.13-.78.08-1.57.13-2.37.13-.12,0-.22-.06-.28-.17-.07-.11-.1-.24-.1-.38s.03-.27.1-.38c.07-.11.17-.18.32-.2.7-.07,1.25-.19,1.64-.34.39-.15.68-.36.85-.62.17-.26.27-.59.31-.97.03-.39.05-.87.05-1.46l.02-14.8c0-1.08-.02-1.94-.08-2.59-.05-.64-.2-1.14-.42-1.49-.23-.35-.56-.59-1.01-.72-.45-.13-1.08-.23-1.89-.31-.12,0-.21-.06-.28-.18-.06-.12-.09-.26-.09-.41s.03-.29.09-.41c.06-.12.17-.18.31-.18,1.58-.16,2.93-.33,4.04-.53,1.11-.2,1.88-.29,2.31-.29.21,0,.36.06.44.17.09.11.13.23.13.35l-.02,16.14c.48-.31.93-.65,1.36-1.02.43-.37.82-.76,1.17-1.17.35-.4.68-.79.98-1.17.3-.37.57-.7.8-.98.49-.65.71-1.12.65-1.41-.06-.29-.49-.46-1.29-.51-.14,0-.24-.06-.31-.19-.07-.13-.11-.26-.11-.4s.04-.26.11-.38c.07-.12.18-.17.31-.17.39,0,.74.01,1.03.04.29.02.56.06.79.1.23.04.46.08.69.1.23.02.49.04.8.04.58,0,1.17-.04,1.77-.14.6-.09,1.19-.14,1.77-.14.11,0,.2.06.28.17.07.12.11.24.11.38s-.03.26-.09.38c-.06.12-.16.19-.29.21-.5.05-.92.12-1.24.22-.33.1-.63.24-.9.41-.28.18-.54.39-.79.62-.25.24-.55.52-.89.84-.23.21-.54.49-.91.84-.37.35-.78.72-1.23,1.11-.44.39-.87.76-1.29,1.11-.42.35-.77.63-1.07.85-.1.09-.14.17-.11.24.02.07.07.11.15.11,1.01.05,1.84.22,2.5.51.66.29,1.22.66,1.67,1.1.45.44.84.94,1.15,1.49.31.55.62,1.12.94,1.71.31.59.66,1.17,1.06,1.73.39.57.89,1.09,1.49,1.57.17.12.39.22.65.29.26.07.54.13.82.18.15.02.26.09.34.2.08.11.12.24.12.38s-.04.27-.12.38c-.08.11-.19.17-.34.17"/><path class="cls-4" d="m271.9,357.52c0,.88.09,1.5.28,1.85.19.35.49.52.91.53.28,0,.51-.03.69-.09.18-.06.43-.2.75-.4.12-.11.29-.04.5.22.2.26.22.46.07.61-.43.51-.94.93-1.53,1.25-.59.32-1.18.48-1.79.48-.77,0-1.42-.15-1.94-.45-.52-.3-.94-.8-1.26-1.5-.05-.11-.13-.12-.24-.04-.69.56-1.46,1.04-2.3,1.43-.83.37-1.89.55-3.17.55-1.45,0-2.57-.38-3.36-1.15-.79-.76-1.18-1.85-1.18-3.26,0-1.85.84-3.27,2.52-4.25s4.13-1.47,7.36-1.46c.04,0,.06-.01.08-.04.02-.02.03-.1.04-.23,0-.13.01-.32.02-.59,0-.26,0-.64.01-1.11,0-.63-.05-1.22-.14-1.77-.1-.55-.28-1.04-.55-1.46-.27-.42-.64-.75-1.1-.99-.47-.24-1.07-.36-1.8-.36s-1.38.18-1.93.55c-.55.37-.83.84-.83,1.42,0,.26.09.53.26.81.18.26.28.53.28.81,0,.34-.18.68-.54,1.01-.36.33-.78.5-1.27.5-.69,0-1.17-.19-1.46-.55-.29-.37-.43-.82-.43-1.34,0-.64.18-1.23.54-1.78.36-.55.84-1.03,1.44-1.44.6-.41,1.3-.73,2.11-.96.8-.23,1.65-.35,2.53-.35,2.01,0,3.59.47,4.75,1.4,1.15.92,1.73,2.46,1.72,4.62v7.55Zm-3.55-3.83c0-.28-.01-.45-.04-.51-.02-.06-.09-.09-.18-.09-2.06.17-3.59.61-4.59,1.33-.99.71-1.49,1.62-1.49,2.72,0,.38.05.73.14,1.06.09.33.24.62.43.85.2.24.45.43.76.56.31.14.69.2,1.13.2.59,0,1.2-.11,1.82-.34.63-.23,1.2-.55,1.71-.98.2-.19.29-.4.3-.61v-4.2Z"/><path class="cls-4" d="m293.72,356.85c-.1.6-.19,1.25-.26,1.95-.07.7-.11,1.45-.11,2.26,0,.28-.1.42-.3.42l-13.44-.02c-.26,0-.39-.12-.39-.37,0-.15.06-.31.17-.5.68-1.24,1.42-2.47,2.24-3.7.82-1.23,1.64-2.43,2.47-3.62.83-1.19,1.64-2.36,2.44-3.5.8-1.15,1.52-2.27,2.18-3.38.1-.15.13-.27.09-.36-.04-.09-.17-.17-.4-.23-.23-.06-.56-.1-1.01-.13-.45-.03-1.04-.04-1.78-.04-.92,0-1.65.05-2.18.15-.53.1-.96.28-1.27.54-.31.26-.56.6-.74,1.02-.18.42-.37.95-.56,1.59-.04.1-.11.17-.22.22-.11.05-.23.07-.35.07-.16,0-.3-.03-.41-.09-.12-.06-.16-.14-.14-.24.1-.67.18-1.38.24-2.13.06-.74.09-1.41.09-2.02,0-.05.02-.11.07-.19.05-.08.18-.12.39-.12l12.17.02c.16,0,.28.03.37.07.09.05.14.11.17.19.02.08.02.17,0,.26-.02.09-.06.18-.11.27-.73,1.23-1.47,2.43-2.24,3.61-.77,1.18-1.56,2.36-2.39,3.52-.82,1.15-1.6,2.3-2.33,3.43-.73,1.13-1.42,2.27-2.08,3.41-.14.21-.2.38-.2.52,0,.11.05.2.16.27.1.07.28.12.52.17.25.04.58.07,1,.09.42.02.96.03,1.61.03.92,0,1.67-.04,2.26-.12.58-.08,1.06-.24,1.44-.49.37-.25.68-.62.92-1.09.24-.48.48-1.12.71-1.91.02-.1.1-.17.21-.21.12-.04.24-.06.38-.06.17,0,.32.04.45.11.13.07.18.18.16.31"/><path class="cls-4" d="m301.5,351.89c-.12,0-.19.04-.2.13-.01.09-.02.19-.02.31,0,1.31.15,2.42.46,3.32.31.9.74,1.64,1.29,2.2.55.57,1.18.97,1.91,1.23.73.25,1.52.38,2.36.38s1.67-.08,2.47-.24c.8-.16,1.53-.48,2.19-.95.2-.18.41-.13.63.15.23.27.26.5.09.68-.82,1.03-1.73,1.75-2.73,2.17-.99.4-2.23.6-3.72.6s-2.82-.23-3.94-.69c-1.12-.46-2.04-1.09-2.79-1.89-.74-.8-1.29-1.76-1.65-2.86-.36-1.1-.54-2.29-.54-3.58s.21-2.42.63-3.51c.42-1.09,1-2.04,1.74-2.85.74-.81,1.64-1.45,2.68-1.92,1.04-.47,2.19-.71,3.44-.7,1.06,0,2.01.18,2.87.55.86.36,1.59.87,2.21,1.51.61.64,1.09,1.41,1.42,2.29.34.88.5,1.85.5,2.89,0,.53-.19.79-.57.79h-10.75Zm6.9-1.32c.18,0,.32-.03.41-.1.09-.07.16-.16.19-.28.04-.12.06-.25.07-.4,0-.15,0-.32,0-.51,0-.53-.08-1.03-.25-1.52-.16-.49-.4-.92-.7-1.3-.3-.38-.67-.69-1.1-.91-.44-.23-.92-.34-1.46-.34-.69,0-1.27.12-1.76.36-.49.24-.89.56-1.23.96-.33.4-.59.86-.78,1.38-.18.52-.31,1.07-.39,1.65-.05.29-.07.54-.06.73.01.19.07.29.17.29h6.87Z"/><path class="cls-4" d="m172.81,350.11c0-.63,0-1.14-.02-1.52-.01-.38-.07-.68-.16-.89-.1-.21-.25-.35-.45-.43-.21-.07-.5-.13-.87-.18-.15,0-.23-.11-.23-.34s.07-.34.2-.34c.21-.01.49-.05.82-.1.33-.05.66-.11.97-.17.32-.06.6-.11.85-.15.25-.04.43-.06.52-.06.29,0,.44.09.44.28v6.4s0,.04.03.04.04-.01.05-.04c.28-.42.68-.8,1.2-1.14.52-.34,1.16-.5,1.93-.5.63,0,1.19.14,1.67.4.48.27.89.63,1.22,1.08.33.45.58.97.75,1.55.17.59.25,1.2.25,1.83,0,.97-.15,1.81-.45,2.52-.3.71-.71,1.3-1.22,1.76-.51.46-1.11.8-1.78,1.03-.68.22-1.39.34-2.13.33-.52,0-1.07-.03-1.65-.1-.59-.06-1.23-.22-1.93-.47v-10.79Zm2.06,8.95c0,.09.05.22.15.4.1.18.24.35.42.51.18.16.4.31.66.43.26.13.54.19.85.19.53,0,.97-.12,1.32-.36.35-.24.63-.57.84-.99.21-.42.35-.9.43-1.44.08-.54.12-1.11.12-1.71,0-.52-.03-1-.08-1.44-.06-.45-.16-.84-.32-1.18-.15-.34-.37-.6-.65-.8-.28-.2-.65-.3-1.1-.3-.38,0-.73.07-1.05.22-.32.15-.6.32-.84.53-.24.2-.42.43-.55.67-.13.25-.2.47-.2.66v4.62Z"/><path class="cls-4" d="m193.87,358.91c0,.52.05.88.16,1.08.11.21.29.31.53.31.17,0,.3-.02.4-.05.1-.04.25-.11.44-.24.07-.06.17-.02.29.13.12.15.13.27.04.35-.25.3-.55.54-.89.73-.34.19-.69.28-1.04.28-.45,0-.83-.09-1.13-.27-.3-.18-.55-.47-.73-.88-.03-.06-.08-.07-.14-.02-.4.33-.85.61-1.34.84-.49.21-1.1.32-1.85.32-.84,0-1.5-.22-1.96-.67-.46-.44-.69-1.08-.69-1.9,0-1.08.49-1.91,1.47-2.48.98-.57,2.41-.86,4.29-.85.02,0,.04,0,.05-.02,0-.01.02-.06.02-.13,0-.07,0-.19,0-.34,0-.15,0-.37,0-.65,0-.36-.03-.71-.08-1.03-.06-.32-.16-.6-.32-.85-.16-.24-.37-.44-.64-.57-.27-.14-.62-.21-1.05-.21s-.8.11-1.13.32c-.32.21-.48.49-.48.83,0,.15.05.31.15.47.11.15.16.31.16.47,0,.2-.1.4-.31.59-.21.19-.45.29-.74.29-.4,0-.69-.11-.86-.32-.17-.22-.25-.48-.25-.78,0-.37.11-.72.31-1.04.21-.32.49-.6.84-.84.35-.24.76-.43,1.23-.56.47-.14.96-.2,1.48-.2,1.17,0,2.09.27,2.77.82.67.54,1.01,1.44,1.01,2.7v4.4Zm-2.07-2.24c0-.16,0-.26-.02-.3-.02-.04-.05-.05-.11-.05-1.2.1-2.09.36-2.68.77-.58.42-.87.95-.87,1.59,0,.22.03.43.08.62.05.19.14.36.25.5.11.14.26.25.44.33.18.08.4.12.66.12.34,0,.7-.07,1.06-.2.37-.13.7-.32,1-.57.11-.11.17-.23.17-.35v-2.45Z"/><path class="cls-4" d="m202.36,358.63c0,.37,0,.67.03.91.02.24.1.44.23.6.13.15.34.27.62.37.28.09.68.17,1.2.24.07.01.13.05.17.12.04.06.06.14.06.22s-.02.16-.07.22c-.05.06-.1.1-.16.1-.63,0-1.19-.03-1.67-.08-.48-.05-.95-.08-1.39-.08s-.93.02-1.39.07c-.46.05-.93.07-1.4.07-.07,0-.12-.03-.16-.1-.04-.06-.06-.14-.05-.22s.02-.16.06-.22c.04-.06.1-.1.18-.12.4-.06.71-.13.94-.22.22-.09.39-.21.5-.36.11-.15.18-.33.2-.56.02-.22.03-.51.03-.85v-3.21c0-.72,0-1.29-.04-1.71-.03-.42-.1-.75-.21-.98-.11-.23-.28-.38-.51-.46-.23-.08-.56-.14-.97-.17-.07,0-.12-.04-.16-.11-.04-.07-.05-.14-.05-.22s.02-.15.07-.22c.04-.07.1-.11.17-.11.35-.03.7-.06,1.06-.11.36-.05.68-.09.98-.13.3-.04.56-.08.76-.12.21-.04.33-.05.39-.05.26,0,.4.13.4.4,0,.1,0,.31-.03.62-.02.31-.03.59-.03.83,0,.03.01.04.04.04.03,0,.05-.01.06-.04.25-.64.6-1.14,1.05-1.48.45-.34,1.04-.51,1.79-.51.62,0,1.07.15,1.36.44.29.29.44.67.44,1.14,0,.27-.09.5-.28.71-.19.21-.46.32-.81.32s-.57-.08-.71-.24c-.13-.16-.2-.34-.2-.52,0-.44-.21-.67-.63-.67-.28,0-.53.09-.76.27-.23.18-.42.4-.58.65-.16.25-.29.51-.37.77-.09.27-.13.47-.13.61v4.13Z"/></g><rect class="cls-1" x="63.53" y="-166.59" width="578.27" height="814.68" transform="translate(111.44 593.1) rotate(-89.92)"/></svg>